<svg width="640" height="640" viewBox="0 0 640 640" fill="none" xmlns="http://www.w3.org/2000/svg">
  <g>
    <circle cx="320" cy="220" r="150" fill="white" fill-opacity="0.95"/>

    <ellipse
      cx="320"
      cy="220"
      rx="292"
      ry="88"
      transform="rotate(-21 320 220)"
      stroke="white"
      stroke-width="24"
      fill="none"
    />
    <ellipse
      cx="320"
      cy="220"
      rx="266"
      ry="70"
      transform="rotate(-21 320 220)"
      stroke="white"
      stroke-width="7"
      fill="none"
    />

    <path
      d="M420 116L427 136L448 136L431 149L437 170L420 157L402 170L409 149L392 136L413 136L420 116Z"
      fill="white"
    />

    <circle cx="278" cy="150" r="2.8" fill="white"/>
    <circle cx="248" cy="184" r="2.2" fill="white"/>
    <circle cx="288" cy="208" r="1.9" fill="white"/>
    <circle cx="350" cy="184" r="2.1" fill="white"/>
    <circle cx="380" cy="222" r="2.4" fill="white"/>
    <circle cx="304" cy="268" r="2.2" fill="white"/>
    <circle cx="356" cy="274" r="2.3" fill="white"/>
    <circle cx="266" cy="244" r="1.9" fill="white"/>

    <text
      x="320"
      y="520"
      text-anchor="middle"
      fill="white"
      font-family="Inter, Avenir Next, Arial, sans-serif"
      font-size="96"
      font-weight="500"
      letter-spacing="2"
    >ecliptic</text>
  </g>
</svg>
