<svg width="512" height="512" viewBox="0 0 512 512" fill="none" xmlns="http://www.w3.org/2000/svg">
  <g fill="white">
    <circle cx="256" cy="198" r="128" fill-opacity="0.96"/>
    <ellipse cx="256" cy="198" rx="236" ry="72" transform="rotate(-20 256 198)" fill="none" stroke="white" stroke-width="20"/>
    <ellipse cx="256" cy="198" rx="215" ry="57" transform="rotate(-20 256 198)" fill="none" stroke="white" stroke-width="8"/>
    <circle cx="285" cy="120" r="10"/>
    <circle cx="220" cy="150" r="3"/>
    <circle cx="186" cy="184" r="2.5"/>
    <circle cx="306" cy="230" r="2.5"/>
    <circle cx="238" cy="256" r="3"/>
    <circle cx="300" cy="175" r="2"/>
    <path d="M70 430V344H106C123 344 136 356 136 372C136 388 123 400 106 400H84V430H70ZM84 387H105C114 387 121 381 121 372C121 363 114 357 105 357H84V387Z"/>
    <path d="M157 393C157 369 175 351 199 351C222 351 238 368 238 391V396H171C173 406 181 414 195 414C204 414 213 411 220 405L229 415C220 424 207 430 194 430C171 430 157 413 157 393ZM171 386H224C222 376 215 366 199 366C186 366 175 375 171 386Z"/>
    <path d="M254 390C254 367 271 351 295 351C308 351 320 356 328 366L318 375C313 369 305 366 296 366C281 366 269 376 269 390C269 405 281 415 296 415C305 415 313 412 318 406L328 415C320 425 308 430 295 430C271 430 254 414 254 390Z"/>
    <path d="M344 430V344H358V430H344Z"/>
    <path d="M378 390C378 367 395 351 419 351C443 351 460 367 460 390C460 414 443 430 419 430C395 430 378 414 378 390ZM393 390C393 406 404 416 419 416C434 416 445 406 445 390C445 375 434 365 419 365C404 365 393 375 393 390Z"/>
  </g>
</svg>
